<?xml version="1.0" encoding="UTF-8" standalone="no"?><svg width="24" height="24" viewBox="0 0 24 24" fill="none" xmlns="http://www.w3.org/2000/svg">
<g clip-path="url(#clip0_785_4375)">
<path d="M3 5.97474C3 5.40234 3.20271 4.93012 3.60811 4.55808C4.01351 4.18602 4.54055 4 5.18919 4C5.82626 4 6.34169 4.18315 6.73552 4.54949C7.14092 4.92727 7.34363 5.41951 7.34363 6.02626C7.34363 6.57575 7.14672 7.03365 6.7529 7.39999C6.3475 7.77777 5.81467 7.96666 5.15444 7.96666H5.13707C4.49999 7.96666 3.98456 7.77777 3.59073 7.39999C3.19691 7.02222 3 6.54713 3 5.97474ZM3.22587 21V9.52928H7.08301V21H3.22587ZM9.22008 21H13.0772V14.5949C13.0772 14.1942 13.1236 13.8852 13.2162 13.6677C13.3784 13.2784 13.6245 12.9493 13.9546 12.6803C14.2847 12.4113 14.6988 12.2768 15.1969 12.2768C16.4942 12.2768 17.1429 13.1411 17.1429 14.8697V21H21V14.4232C21 12.7289 20.5946 11.4439 19.7838 10.5682C18.973 9.69241 17.9016 9.25454 16.5695 9.25454C15.0753 9.25454 13.9112 9.88989 13.0772 11.1606V11.1949H13.0598L13.0772 11.1606V9.52928H9.22008C9.24324 9.89561 9.25483 11.0347 9.25483 12.9464C9.25483 14.8582 9.24324 17.5427 9.22008 21Z" fill="black"/>
</g>
<defs>
<clipPath id="clip0_785_4375">
<rect width="18" height="17" fill="white" transform="translate(3 4)"/>
</clipPath>
</defs>
</svg>
